<?xml version="1.0" encoding="iso-8859-1"?>
<!-- Uploaded to: SVG Repo, www.svgrepo.com, Generator: SVG Repo Mixer Tools -->
<svg fill="#000000" height="800px" width="800px" version="1.1" id="Layer_1" xmlns="http://www.w3.org/2000/svg" xmlns:xlink="http://www.w3.org/1999/xlink" 
	 viewBox="0 0 512 512" xml:space="preserve">
<g>
	<g>
		<g>
			<path d="M465.792,29.582H46.207C20.729,29.582,0,50.311,0,75.79c0,19.89,12.633,36.884,30.295,43.383l31.709,322.005
				c2.238,22.74,22.648,41.24,45.498,41.24h296.995c22.849,0,43.26-18.499,45.499-41.239l31.709-322.006
				C499.367,112.674,512,95.68,512,75.79C512,50.311,491.27,29.582,465.792,29.582z M16.023,75.79
				c0-16.644,13.541-30.184,30.184-30.184h352.77c16.644,0,30.184,13.541,30.184,30.184s-13.541,30.184-30.184,30.184H46.207
				C29.564,105.974,16.023,92.433,16.023,75.79z M337.683,466.395H107.502c-14.59,0-28.124-12.266-29.552-26.786L46.674,121.997
				h351.837l-31.275,317.611C365.806,454.128,352.272,466.395,337.683,466.395z M434.05,439.608
				c-1.43,14.52-14.964,26.787-29.554,26.787h-32.482c6.123-6.978,10.232-15.724,11.167-25.216l31.43-319.181h50.714L434.05,439.608
				z M465.792,105.974H433.92c7.011-8.103,11.265-18.653,11.265-30.184c0-11.531-4.256-22.08-11.265-30.184h31.872
				c16.645,0,30.185,13.541,30.185,30.184S482.435,105.974,465.792,105.974z"/>
			<path d="M191.142,337.489l10.237-13.459c1.843-2.423,2.154-5.681,0.8-8.408c-1.352-2.727-4.133-4.452-7.177-4.452h-24.88
				l15.987-27.689l8.877,5.124c2.977,1.72,6.721,1.347,9.301-0.926s3.423-5.938,2.093-9.11l-17.567-41.9
				c-1.392-3.32-4.825-5.3-8.399-4.85l-45.071,5.736c-3.411,0.434-6.165,2.996-6.843,6.368c-0.678,3.371,0.871,6.799,3.849,8.518
				l9.215,5.321l-29.49,51.078c-1.499,2.596-1.399,5.75,0.122,8.212l24.229,41.965c1.431,2.478,4.075,4.006,6.938,4.006h51.042
				c3.044,0,5.825-1.725,7.177-4.453c1.352-2.727,1.043-5.985-0.8-8.409L191.142,337.489z M174.701,342.338l3.544,4.661
				l-30.259-0.001l-19.721-34.158l31.18-54.006c1.518-2.629,1.376-5.761-0.099-8.183l17.046-2.169l6.725,16.041
				c-2.745,0.022-5.406,1.457-6.878,4.007l-26.932,46.644c-1.431,2.478-1.431,5.532,0,8.012c1.431,2.478,4.076,4.006,6.938,4.006
				h22.599l-4.142,5.448C172.521,335.504,172.521,339.472,174.701,342.338z"/>
			<path d="M306.91,263.378c-1.524-2.632-4.399-4.17-7.445-3.979c-3.036,0.195-5.699,2.092-6.876,4.898l-6.156,14.682l-16.773-2.135
				c-3.021-0.383-6.002,0.978-7.687,3.518c-1.685,2.539-1.784,5.813-0.255,8.45l13.077,22.549h-31.941v-10.252
				c0-3.439-2.194-6.494-5.453-7.592c-3.258-1.099-6.854,0.004-8.936,2.742l-27.504,36.164c-2.179,2.866-2.179,6.833,0,9.699
				l27.504,36.164c1.545,2.031,3.922,3.162,6.378,3.162c0.854,0,1.718-0.137,2.557-0.421c3.259-1.098,5.453-4.153,5.453-7.592
				l-0.001-10.639h58.98c2.997,0,5.682-1.664,7.053-4.217l24.226-41.959c1.434-2.482,1.431-5.542-0.005-8.022L306.91,263.378z
				 M297.201,346.773h-62.36c-2.125,0-4.163,0.844-5.665,2.347c-0.547,0.547-1.006,1.164-1.37,1.831l-10.403-13.678l10.528-13.844
				c1.393,2.366,3.965,3.955,6.91,3.955h53.86c2.865,0,5.512-1.53,6.942-4.012c1.429-2.483,1.426-5.54-0.012-8.018l-11.928-20.567
				l6.749,0.859c3.568,0.45,7.007-1.53,8.4-4.85l2.276-5.428l15.788,27.254L297.201,346.773z"/>
			<path d="M174.031,227.223l15.793-2.009l6.537,15.591c1.177,2.807,3.843,4.705,6.881,4.898c3.036,0.194,5.922-1.353,7.445-3.989
				l12.205-21.137l15.988,27.69l-8.877,5.125c-2.978,1.719-4.526,5.147-3.849,8.518c0.678,3.371,3.431,5.934,6.842,6.368
				l45.07,5.737c0.341,0.043,0.679,0.065,1.016,0.065c3.193,0,6.125-1.911,7.384-4.915l17.567-41.901
				c1.329-3.172,0.487-6.836-2.094-9.11c-2.581-2.272-6.324-2.646-9.301-0.926l-9.214,5.32l-29.489-51.076
				c-1.488-2.578-4.226-4.058-7.123-4.004h-48.507c-2.862,0-5.507,1.528-6.938,4.006l-25.287,43.795
				c-1.522,2.636-1.419,5.907,0.267,8.442C168.035,226.247,171.013,227.606,174.031,227.223z M202.933,183.492l39.441-0.002
				l31.181,54.007c1.063,1.841,2.813,3.182,4.865,3.733c0.747,0.2,1.507,0.288,2.271,0.27l-6.644,15.849l-17.254-2.196
				c1.352-2.39,1.441-5.411-0.031-7.961l-26.932-46.644c-1.431-2.478-4.075-4.006-6.938-4.006h-0.001
				c-2.862,0-5.507,1.526-6.938,4.005l-11.063,19.161l-2.646-6.311c-1.391-3.32-4.824-5.302-8.399-4.85l-5.808,0.739
				L202.933,183.492z"/>
		</g>
	</g>
</g>
</svg>